<?xml version="1.0" encoding="UTF-8"?>
<!DOCTYPE svg PUBLIC "-//W3C//DTD SVG 1.1//EN" "http://www.w3.org/Graphics/SVG/1.1/DTD/svg11.dtd">
<svg xmlns="http://www.w3.org/2000/svg" style="background: transparent; background-color: transparent; color-scheme: light dark;" xmlns:xlink="http://www.w3.org/1999/xlink" version="1.1" width="671px" height="681px" viewBox="0 0 671 681"><defs><clipPath id="mx-clip-264-31-152-26-0"><rect x="264" y="31" width="152" height="26"/></clipPath><clipPath id="mx-clip-264-57-152-26-0"><rect x="264" y="57" width="152" height="26"/></clipPath></defs><g><g data-cell-id="rQ4_E-2jFjT17-glCwLo-0"><g data-cell-id="rQ4_E-2jFjT17-glCwLo-1"><g data-cell-id="x6Vk1Ll8AwFKSjwjMr0p-0"><g transform="translate(0.5,0.5)"><path d="M 260 26 L 260 0 L 420 0 L 420 26" fill="#dae8fc" stroke="#000000" stroke-miterlimit="10" pointer-events="all" style="fill: light-dark(rgb(218, 232, 252), rgb(29, 41, 59)); stroke: light-dark(rgb(0, 0, 0), rgb(255, 255, 255));"/><path d="M 260 26 L 260 78 L 420 78 L 420 26" fill="none" stroke="#000000" stroke-miterlimit="10" pointer-events="none" style="stroke: light-dark(rgb(0, 0, 0), rgb(255, 255, 255));"/><path d="M 260 26 L 420 26" fill="none" stroke="#000000" stroke-miterlimit="10" pointer-events="none" style="stroke: light-dark(rgb(0, 0, 0), rgb(255, 255, 255));"/></g><g><g fill="#000000" font-family="'Segoe UI'" text-anchor="middle" font-size="13px" style="fill: light-dark(rgb(0, 0, 0), rgb(255, 255, 255));"><text x="340" y="18.5">EFitsException</text></g></g><g data-cell-id="x6Vk1Ll8AwFKSjwjMr0p-1"><g transform="translate(0.5,0.5)"><rect x="260" y="26" width="160" height="26" fill="none" stroke="none" pointer-events="all"/></g><g><g fill="#000000" font-family="'Segoe UI'" font-size="13px" clip-path="url(#mx-clip-264-31-152-26-0)" style="fill: light-dark(rgb(0, 0, 0), rgb(255, 255, 255));"><text x="266" y="45">+ Topic: string</text></g></g></g><g data-cell-id="x6Vk1Ll8AwFKSjwjMr0p-2"><g transform="translate(0.5,0.5)"><rect x="260" y="52" width="160" height="26" fill="none" stroke="none" pointer-events="all"/></g><g><g fill="#000000" font-family="'Segoe UI'" font-size="13px" clip-path="url(#mx-clip-264-57-152-26-0)" style="fill: light-dark(rgb(0, 0, 0), rgb(255, 255, 255));"><text x="266" y="71">+ Code: Integer</text></g></g></g></g><g data-cell-id="iev4zoGhxsVC_mGmtzaG-4"><g transform="translate(0.5,0.5)"><path d="M 160 13 L 220 13 L 220 65 L 245.88 65" fill="none" stroke="#000000" stroke-miterlimit="10" pointer-events="stroke" style="stroke: light-dark(rgb(0, 0, 0), rgb(255, 255, 255));"/><path d="M 258.88 65 L 245.88 71.5 L 245.88 58.5 Z" fill="none" stroke="#000000" stroke-miterlimit="10" pointer-events="all" style="stroke: light-dark(rgb(0, 0, 0), rgb(255, 255, 255));"/></g></g><g data-cell-id="adFwdG6kmuWARCFzOLXI-0"><g transform="translate(0.5,0.5)"><path d="M 0 26 L 0 0 L 160 0 L 160 26" fill="#ffe6cc" stroke="#000000" stroke-miterlimit="10" pointer-events="all" style="fill: light-dark(rgb(255, 230, 204), rgb(54, 33, 10)); stroke: light-dark(rgb(0, 0, 0), rgb(255, 255, 255));"/><path d="M 0 26 L 160 26" fill="none" stroke="#000000" stroke-miterlimit="10" pointer-events="all" style="stroke: light-dark(rgb(0, 0, 0), rgb(255, 255, 255));"/></g><g><g fill="#000000" font-family="'Segoe UI'" text-anchor="middle" font-size="13px" style="fill: light-dark(rgb(0, 0, 0), rgb(255, 255, 255));"><text x="80" y="18.5">EFitsMathException</text></g></g></g><g data-cell-id="iev4zoGhxsVC_mGmtzaG-5"><g transform="translate(0.5,0.5)"><path d="M 160 65 L 245.88 65" fill="none" stroke="#000000" stroke-miterlimit="10" pointer-events="stroke" style="stroke: light-dark(rgb(0, 0, 0), rgb(255, 255, 255));"/><path d="M 258.88 65 L 245.88 71.5 L 245.88 58.5 Z" fill="none" stroke="#000000" stroke-miterlimit="10" pointer-events="all" style="stroke: light-dark(rgb(0, 0, 0), rgb(255, 255, 255));"/></g></g><g data-cell-id="adFwdG6kmuWARCFzOLXI-2"><g transform="translate(0.5,0.5)"><path d="M 0 78 L 0 52 L 160 52 L 160 78" fill="#ffe6cc" stroke="#000000" stroke-miterlimit="10" pointer-events="all" style="fill: light-dark(rgb(255, 230, 204), rgb(54, 33, 10)); stroke: light-dark(rgb(0, 0, 0), rgb(255, 255, 255));"/><path d="M 0 78 L 160 78" fill="none" stroke="#000000" stroke-miterlimit="10" pointer-events="all" style="stroke: light-dark(rgb(0, 0, 0), rgb(255, 255, 255));"/></g><g><g fill="#000000" font-family="'Segoe UI'" text-anchor="middle" font-size="13px" style="fill: light-dark(rgb(0, 0, 0), rgb(255, 255, 255));"><text x="80" y="70.5">EFitsStringException</text></g></g></g><g data-cell-id="iev4zoGhxsVC_mGmtzaG-6"><g transform="translate(0.5,0.5)"><path d="M 160 113 L 220 113 L 220 65 L 245.88 65" fill="none" stroke="#000000" stroke-miterlimit="10" pointer-events="stroke" style="stroke: light-dark(rgb(0, 0, 0), rgb(255, 255, 255));"/><path d="M 258.88 65 L 245.88 71.5 L 245.88 58.5 Z" fill="none" stroke="#000000" stroke-miterlimit="10" pointer-events="all" style="stroke: light-dark(rgb(0, 0, 0), rgb(255, 255, 255));"/></g></g><g data-cell-id="adFwdG6kmuWARCFzOLXI-3"><g transform="translate(0.5,0.5)"><path d="M 0 126 L 0 100 L 160 100 L 160 126" fill="#ffe6cc" stroke="#000000" stroke-miterlimit="10" pointer-events="all" style="fill: light-dark(rgb(255, 230, 204), rgb(54, 33, 10)); stroke: light-dark(rgb(0, 0, 0), rgb(255, 255, 255));"/><path d="M 0 126 L 160 126" fill="none" stroke="#000000" stroke-miterlimit="10" pointer-events="all" style="stroke: light-dark(rgb(0, 0, 0), rgb(255, 255, 255));"/></g><g><g fill="#000000" font-family="'Segoe UI'" text-anchor="middle" font-size="13px" style="fill: light-dark(rgb(0, 0, 0), rgb(255, 255, 255));"><text x="80" y="118.5">EFitsPropException</text></g></g></g><g data-cell-id="iev4zoGhxsVC_mGmtzaG-8"><g transform="translate(0.5,0.5)"><path d="M 160 163 L 220 163 L 220 65 L 245.88 65" fill="none" stroke="#000000" stroke-miterlimit="10" pointer-events="stroke" style="stroke: light-dark(rgb(0, 0, 0), rgb(255, 255, 255));"/><path d="M 258.88 65 L 245.88 71.5 L 245.88 58.5 Z" fill="none" stroke="#000000" stroke-miterlimit="10" pointer-events="all" style="stroke: light-dark(rgb(0, 0, 0), rgb(255, 255, 255));"/></g></g><g data-cell-id="adFwdG6kmuWARCFzOLXI-4"><g transform="translate(0.5,0.5)"><path d="M 0 176 L 0 150 L 160 150 L 160 176" fill="#ffe6cc" stroke="#000000" stroke-miterlimit="10" pointer-events="all" style="fill: light-dark(rgb(255, 230, 204), rgb(54, 33, 10)); stroke: light-dark(rgb(0, 0, 0), rgb(255, 255, 255));"/><path d="M 0 176 L 160 176" fill="none" stroke="#000000" stroke-miterlimit="10" pointer-events="all" style="stroke: light-dark(rgb(0, 0, 0), rgb(255, 255, 255));"/></g><g><g fill="#000000" font-family="'Segoe UI'" text-anchor="middle" font-size="13px" style="fill: light-dark(rgb(0, 0, 0), rgb(255, 255, 255));"><text x="80" y="168.5">EFitsCardException</text></g></g></g><g data-cell-id="iev4zoGhxsVC_mGmtzaG-0"><g transform="translate(0.5,0.5)"><path d="M 510 13 L 460 13 L 460 65 L 434.12 65" fill="none" stroke="#000000" stroke-miterlimit="10" pointer-events="stroke" style="stroke: light-dark(rgb(0, 0, 0), rgb(255, 255, 255));"/><path d="M 421.12 65 L 434.12 58.5 L 434.12 71.5 Z" fill="none" stroke="#000000" stroke-miterlimit="10" pointer-events="all" style="stroke: light-dark(rgb(0, 0, 0), rgb(255, 255, 255));"/></g></g><g data-cell-id="adFwdG6kmuWARCFzOLXI-10"><g transform="translate(0.5,0.5)"><path d="M 510 26 L 510 0 L 670 0 L 670 26" fill="#ffe6cc" stroke="#000000" stroke-miterlimit="10" pointer-events="all" style="fill: light-dark(rgb(255, 230, 204), rgb(54, 33, 10)); stroke: light-dark(rgb(0, 0, 0), rgb(255, 255, 255));"/><path d="M 510 26 L 670 26" fill="none" stroke="#000000" stroke-miterlimit="10" pointer-events="all" style="stroke: light-dark(rgb(0, 0, 0), rgb(255, 255, 255));"/></g><g><g fill="#000000" font-family="'Segoe UI'" text-anchor="middle" font-size="13px" style="fill: light-dark(rgb(0, 0, 0), rgb(255, 255, 255));"><text x="590" y="18.5">EFitsMemoryException</text></g></g></g><g data-cell-id="iev4zoGhxsVC_mGmtzaG-1"><g transform="translate(0.5,0.5)"><path d="M 510 65 L 490 65 L 434.12 65" fill="none" stroke="#000000" stroke-miterlimit="10" pointer-events="stroke" style="stroke: light-dark(rgb(0, 0, 0), rgb(255, 255, 255));"/><path d="M 421.12 65 L 434.12 58.5 L 434.12 71.5 Z" fill="none" stroke="#000000" stroke-miterlimit="10" pointer-events="all" style="stroke: light-dark(rgb(0, 0, 0), rgb(255, 255, 255));"/></g></g><g data-cell-id="adFwdG6kmuWARCFzOLXI-11"><g transform="translate(0.5,0.5)"><path d="M 510 78 L 510 52 L 670 52 L 670 78" fill="#ffe6cc" stroke="#000000" stroke-miterlimit="10" pointer-events="all" style="fill: light-dark(rgb(255, 230, 204), rgb(54, 33, 10)); stroke: light-dark(rgb(0, 0, 0), rgb(255, 255, 255));"/><path d="M 510 78 L 670 78" fill="none" stroke="#000000" stroke-miterlimit="10" pointer-events="all" style="stroke: light-dark(rgb(0, 0, 0), rgb(255, 255, 255));"/></g><g><g fill="#000000" font-family="'Segoe UI'" text-anchor="middle" font-size="13px" style="fill: light-dark(rgb(0, 0, 0), rgb(255, 255, 255));"><text x="590" y="70.5">EFitsContentException</text></g></g></g><g data-cell-id="iev4zoGhxsVC_mGmtzaG-9"><g transform="translate(0.5,0.5)"><path d="M 510 113 L 460 113 L 460 65 L 434.12 65" fill="none" stroke="#000000" stroke-miterlimit="10" pointer-events="stroke" style="stroke: light-dark(rgb(0, 0, 0), rgb(255, 255, 255));"/><path d="M 421.12 65 L 434.12 58.5 L 434.12 71.5 Z" fill="none" stroke="#000000" stroke-miterlimit="10" pointer-events="all" style="stroke: light-dark(rgb(0, 0, 0), rgb(255, 255, 255));"/></g></g><g data-cell-id="adFwdG6kmuWARCFzOLXI-12"><g transform="translate(0.5,0.5)"><path d="M 510 126 L 510 100 L 670 100 L 670 126" fill="#ffe6cc" stroke="#000000" stroke-miterlimit="10" pointer-events="all" style="fill: light-dark(rgb(255, 230, 204), rgb(54, 33, 10)); stroke: light-dark(rgb(0, 0, 0), rgb(255, 255, 255));"/><path d="M 510 126 L 670 126" fill="none" stroke="#000000" stroke-miterlimit="10" pointer-events="all" style="stroke: light-dark(rgb(0, 0, 0), rgb(255, 255, 255));"/></g><g><g fill="#000000" font-family="'Segoe UI'" text-anchor="middle" font-size="13px" style="fill: light-dark(rgb(0, 0, 0), rgb(255, 255, 255));"><text x="590" y="118.5">EFitsContainerException</text></g></g></g><g data-cell-id="HeuAlffZnV7r4S7Nxfxz-5"><g transform="translate(0.5,0.5)"><path d="M 340 140 L 340 90 L 340 92.12" fill="none" stroke="#000000" stroke-miterlimit="10" pointer-events="stroke" style="stroke: light-dark(rgb(0, 0, 0), rgb(255, 255, 255));"/><path d="M 340 79.12 L 346.5 92.12 L 333.5 92.12 Z" fill="none" stroke="#000000" stroke-miterlimit="10" pointer-events="all" style="stroke: light-dark(rgb(0, 0, 0), rgb(255, 255, 255));"/></g></g><g data-cell-id="adFwdG6kmuWARCFzOLXI-50"><g transform="translate(0.5,0.5)"><path d="M 250 163 L 250 140 L 430 140 L 430 163" fill="none" stroke="#000000" stroke-miterlimit="10" stroke-dasharray="3 3" pointer-events="all" style="stroke: light-dark(rgb(0, 0, 0), rgb(255, 255, 255));"/><path d="M 250 163 L 250 340 L 430 340 L 430 163" fill="none" stroke="#000000" stroke-miterlimit="10" stroke-dasharray="3 3" pointer-events="none" style="stroke: light-dark(rgb(0, 0, 0), rgb(255, 255, 255));"/></g><g><g fill="#000000" font-family="'Segoe UI'" text-anchor="middle" font-size="13px" style="fill: light-dark(rgb(0, 0, 0), rgb(255, 255, 255));"><text x="340" y="157">ITEM</text></g></g><g data-cell-id="adFwdG6kmuWARCFzOLXI-6"><g transform="translate(0.5,0.5)"><path d="M 260 206 L 260 180 L 420 180 L 420 206" fill="#ffe6cc" stroke="#000000" stroke-miterlimit="10" pointer-events="all" style="fill: light-dark(rgb(255, 230, 204), rgb(54, 33, 10)); stroke: light-dark(rgb(0, 0, 0), rgb(255, 255, 255));"/><path d="M 260 206 L 420 206" fill="none" stroke="#000000" stroke-miterlimit="10" pointer-events="all" style="stroke: light-dark(rgb(0, 0, 0), rgb(255, 255, 255));"/></g><g><g fill="#000000" font-family="'Segoe UI'" text-anchor="middle" font-size="13px" style="fill: light-dark(rgb(0, 0, 0), rgb(255, 255, 255));"><text x="340" y="198.5">EFitsItemSpecException</text></g></g></g><g data-cell-id="adFwdG6kmuWARCFzOLXI-7"><g transform="translate(0.5,0.5)"><path d="M 260 246 L 260 220 L 420 220 L 420 246" fill="#ffe6cc" stroke="#000000" stroke-miterlimit="10" pointer-events="all" style="fill: light-dark(rgb(255, 230, 204), rgb(54, 33, 10)); stroke: light-dark(rgb(0, 0, 0), rgb(255, 255, 255));"/><path d="M 260 246 L 420 246" fill="none" stroke="#000000" stroke-miterlimit="10" pointer-events="all" style="stroke: light-dark(rgb(0, 0, 0), rgb(255, 255, 255));"/></g><g><g fill="#000000" font-family="'Segoe UI'" text-anchor="middle" font-size="13px" style="fill: light-dark(rgb(0, 0, 0), rgb(255, 255, 255));"><text x="340" y="238.5">EFitsItemHeadException</text></g></g></g><g data-cell-id="adFwdG6kmuWARCFzOLXI-8"><g transform="translate(0.5,0.5)"><path d="M 260 286 L 260 260 L 420 260 L 420 286" fill="#ffe6cc" stroke="#000000" stroke-miterlimit="10" pointer-events="all" style="fill: light-dark(rgb(255, 230, 204), rgb(54, 33, 10)); stroke: light-dark(rgb(0, 0, 0), rgb(255, 255, 255));"/><path d="M 260 286 L 420 286" fill="none" stroke="#000000" stroke-miterlimit="10" pointer-events="all" style="stroke: light-dark(rgb(0, 0, 0), rgb(255, 255, 255));"/></g><g><g fill="#000000" font-family="'Segoe UI'" text-anchor="middle" font-size="13px" style="fill: light-dark(rgb(0, 0, 0), rgb(255, 255, 255));"><text x="340" y="278.5">EFitsItemDataException</text></g></g></g><g data-cell-id="adFwdG6kmuWARCFzOLXI-9"><g transform="translate(0.5,0.5)"><path d="M 260 326 L 260 300 L 420 300 L 420 326" fill="#ffe6cc" stroke="#000000" stroke-miterlimit="10" pointer-events="all" style="fill: light-dark(rgb(255, 230, 204), rgb(54, 33, 10)); stroke: light-dark(rgb(0, 0, 0), rgb(255, 255, 255));"/><path d="M 260 326 L 420 326" fill="none" stroke="#000000" stroke-miterlimit="10" pointer-events="all" style="stroke: light-dark(rgb(0, 0, 0), rgb(255, 255, 255));"/></g><g><g fill="#000000" font-family="'Segoe UI'" text-anchor="middle" font-size="13px" style="fill: light-dark(rgb(0, 0, 0), rgb(255, 255, 255));"><text x="340" y="318.5">EFitsItemException</text></g></g></g></g><g data-cell-id="adFwdG6kmuWARCFzOLXI-51"><g transform="translate(0.5,0.5)"><path d="M 0 253 L 0 230 L 180 230 L 180 253" fill="none" stroke="#000000" stroke-miterlimit="10" stroke-dasharray="3 3" pointer-events="all" style="stroke: light-dark(rgb(0, 0, 0), rgb(255, 255, 255));"/><path d="M 0 253 L 0 430 L 180 430 L 180 253" fill="none" stroke="#000000" stroke-miterlimit="10" stroke-dasharray="3 3" pointer-events="none" style="stroke: light-dark(rgb(0, 0, 0), rgb(255, 255, 255));"/></g><g><g fill="#000000" font-family="'Segoe UI'" text-anchor="middle" font-size="13px" style="fill: light-dark(rgb(0, 0, 0), rgb(255, 255, 255));"><text x="90" y="247">IMAGE</text></g></g><g data-cell-id="adFwdG6kmuWARCFzOLXI-52"><g transform="translate(0.5,0.5)"><path d="M 10 296 L 10 270 L 170 270 L 170 296" fill="#ffe6cc" stroke="#000000" stroke-miterlimit="10" pointer-events="all" style="fill: light-dark(rgb(255, 230, 204), rgb(54, 33, 10)); stroke: light-dark(rgb(0, 0, 0), rgb(255, 255, 255));"/><path d="M 10 296 L 170 296" fill="none" stroke="#000000" stroke-miterlimit="10" pointer-events="all" style="stroke: light-dark(rgb(0, 0, 0), rgb(255, 255, 255));"/></g><g><g fill="#000000" font-family="'Segoe UI'" text-anchor="middle" font-size="13px" style="fill: light-dark(rgb(0, 0, 0), rgb(255, 255, 255));"><text x="90" y="288.5">EFitsImageSpecException</text></g></g></g><g data-cell-id="adFwdG6kmuWARCFzOLXI-53"><g transform="translate(0.5,0.5)"><path d="M 10 336 L 10 310 L 170 310 L 170 336" fill="#ffe6cc" stroke="#000000" stroke-miterlimit="10" pointer-events="all" style="fill: light-dark(rgb(255, 230, 204), rgb(54, 33, 10)); stroke: light-dark(rgb(0, 0, 0), rgb(255, 255, 255));"/><path d="M 10 336 L 170 336" fill="none" stroke="#000000" stroke-miterlimit="10" pointer-events="all" style="stroke: light-dark(rgb(0, 0, 0), rgb(255, 255, 255));"/></g><g><g fill="#000000" font-family="'Segoe UI'" text-anchor="middle" font-size="13px" style="fill: light-dark(rgb(0, 0, 0), rgb(255, 255, 255));"><text x="90" y="328.5">EFitsImageHeadException</text></g></g></g><g data-cell-id="adFwdG6kmuWARCFzOLXI-54"><g transform="translate(0.5,0.5)"><path d="M 10 376 L 10 350 L 170 350 L 170 376" fill="#ffe6cc" stroke="#000000" stroke-miterlimit="10" pointer-events="all" style="fill: light-dark(rgb(255, 230, 204), rgb(54, 33, 10)); stroke: light-dark(rgb(0, 0, 0), rgb(255, 255, 255));"/><path d="M 10 376 L 170 376" fill="none" stroke="#000000" stroke-miterlimit="10" pointer-events="all" style="stroke: light-dark(rgb(0, 0, 0), rgb(255, 255, 255));"/></g><g><g fill="#000000" font-family="'Segoe UI'" text-anchor="middle" font-size="13px" style="fill: light-dark(rgb(0, 0, 0), rgb(255, 255, 255));"><text x="90" y="368.5">EFitsImageDataException</text></g></g></g><g data-cell-id="adFwdG6kmuWARCFzOLXI-55"><g transform="translate(0.5,0.5)"><path d="M 10 416 L 10 390 L 170 390 L 170 416" fill="#ffe6cc" stroke="#000000" stroke-miterlimit="10" pointer-events="all" style="fill: light-dark(rgb(255, 230, 204), rgb(54, 33, 10)); stroke: light-dark(rgb(0, 0, 0), rgb(255, 255, 255));"/><path d="M 10 416 L 170 416" fill="none" stroke="#000000" stroke-miterlimit="10" pointer-events="all" style="stroke: light-dark(rgb(0, 0, 0), rgb(255, 255, 255));"/></g><g><g fill="#000000" font-family="'Segoe UI'" text-anchor="middle" font-size="13px" style="fill: light-dark(rgb(0, 0, 0), rgb(255, 255, 255));"><text x="90" y="408.5">EFitsImageException</text></g></g></g></g><g data-cell-id="adFwdG6kmuWARCFzOLXI-56"><g transform="translate(0.5,0.5)"><path d="M 0 503 L 0 480 L 180 480 L 180 503" fill="none" stroke="#000000" stroke-miterlimit="10" stroke-dasharray="3 3" pointer-events="all" style="stroke: light-dark(rgb(0, 0, 0), rgb(255, 255, 255));"/><path d="M 0 503 L 0 680 L 180 680 L 180 503" fill="none" stroke="#000000" stroke-miterlimit="10" stroke-dasharray="3 3" pointer-events="none" style="stroke: light-dark(rgb(0, 0, 0), rgb(255, 255, 255));"/></g><g><g fill="#000000" font-family="'Segoe UI'" text-anchor="middle" font-size="13px" style="fill: light-dark(rgb(0, 0, 0), rgb(255, 255, 255));"><text x="90" y="497">PICTURE</text></g></g><g data-cell-id="adFwdG6kmuWARCFzOLXI-57"><g transform="translate(0.5,0.5)"><path d="M 10 546 L 10 520 L 170 520 L 170 546" fill="#ffe6cc" stroke="#000000" stroke-miterlimit="10" pointer-events="all" style="fill: light-dark(rgb(255, 230, 204), rgb(54, 33, 10)); stroke: light-dark(rgb(0, 0, 0), rgb(255, 255, 255));"/><path d="M 10 546 L 170 546" fill="none" stroke="#000000" stroke-miterlimit="10" pointer-events="all" style="stroke: light-dark(rgb(0, 0, 0), rgb(255, 255, 255));"/></g><g><g fill="#000000" font-family="'Segoe UI'" text-anchor="middle" font-size="13px" style="fill: light-dark(rgb(0, 0, 0), rgb(255, 255, 255));"><text x="90" y="538.5">EFitsPictureSpecException</text></g></g></g><g data-cell-id="adFwdG6kmuWARCFzOLXI-58"><g transform="translate(0.5,0.5)"><path d="M 10 586 L 10 560 L 170 560 L 170 586" fill="#ffe6cc" stroke="#000000" stroke-miterlimit="10" pointer-events="all" style="fill: light-dark(rgb(255, 230, 204), rgb(54, 33, 10)); stroke: light-dark(rgb(0, 0, 0), rgb(255, 255, 255));"/><path d="M 10 586 L 170 586" fill="none" stroke="#000000" stroke-miterlimit="10" pointer-events="all" style="stroke: light-dark(rgb(0, 0, 0), rgb(255, 255, 255));"/></g><g><g fill="#000000" font-family="'Segoe UI'" text-anchor="middle" font-size="13px" style="fill: light-dark(rgb(0, 0, 0), rgb(255, 255, 255));"><text x="90" y="578.5">EFitsPictureHeadException</text></g></g></g><g data-cell-id="adFwdG6kmuWARCFzOLXI-59"><g transform="translate(0.5,0.5)"><path d="M 10 626 L 10 600 L 170 600 L 170 626" fill="#ffe6cc" stroke="#000000" stroke-miterlimit="10" pointer-events="all" style="fill: light-dark(rgb(255, 230, 204), rgb(54, 33, 10)); stroke: light-dark(rgb(0, 0, 0), rgb(255, 255, 255));"/><path d="M 10 626 L 170 626" fill="none" stroke="#000000" stroke-miterlimit="10" pointer-events="all" style="stroke: light-dark(rgb(0, 0, 0), rgb(255, 255, 255));"/></g><g><g fill="#000000" font-family="'Segoe UI'" text-anchor="middle" font-size="13px" style="fill: light-dark(rgb(0, 0, 0), rgb(255, 255, 255));"><text x="90" y="618.5">EFitsPictureDataException</text></g></g></g><g data-cell-id="adFwdG6kmuWARCFzOLXI-60"><g transform="translate(0.5,0.5)"><path d="M 10 666 L 10 640 L 170 640 L 170 666" fill="#ffe6cc" stroke="#000000" stroke-miterlimit="10" pointer-events="all" style="fill: light-dark(rgb(255, 230, 204), rgb(54, 33, 10)); stroke: light-dark(rgb(0, 0, 0), rgb(255, 255, 255));"/><path d="M 10 666 L 170 666" fill="none" stroke="#000000" stroke-miterlimit="10" pointer-events="all" style="stroke: light-dark(rgb(0, 0, 0), rgb(255, 255, 255));"/></g><g><g fill="#000000" font-family="'Segoe UI'" text-anchor="middle" font-size="13px" style="fill: light-dark(rgb(0, 0, 0), rgb(255, 255, 255));"><text x="90" y="658.5">EFitsPictureException</text></g></g></g></g><g data-cell-id="adFwdG6kmuWARCFzOLXI-61"><g transform="translate(0.5,0.5)"><path d="M 490 253 L 490 230 L 670 230 L 670 253" fill="none" stroke="#000000" stroke-miterlimit="10" stroke-dasharray="3 3" pointer-events="all" style="stroke: light-dark(rgb(0, 0, 0), rgb(237, 237, 237));"/><path d="M 490 253 L 490 430 L 670 430 L 670 253" fill="none" stroke="#000000" stroke-miterlimit="10" stroke-dasharray="3 3" pointer-events="none" style="stroke: light-dark(rgb(0, 0, 0), rgb(237, 237, 237));"/></g><g><g fill="#333333" font-family="'Segoe UI'" text-anchor="middle" font-size="13px" style="fill: light-dark(rgb(51, 51, 51), rgb(193, 193, 193));"><text x="580" y="247">TABLE</text></g></g><g data-cell-id="adFwdG6kmuWARCFzOLXI-62"><g transform="translate(0.5,0.5)"><path d="M 500 296 L 500 270 L 660 270 L 660 296" fill="#ffe6cc" stroke="#000000" stroke-miterlimit="10" pointer-events="all" style="fill: light-dark(rgb(255, 230, 204), rgb(54, 33, 10)); stroke: light-dark(rgb(0, 0, 0), rgb(255, 255, 255));"/><path d="M 500 296 L 660 296" fill="none" stroke="#000000" stroke-miterlimit="10" pointer-events="all" style="stroke: light-dark(rgb(0, 0, 0), rgb(255, 255, 255));"/></g><g><g fill="#000000" font-family="'Segoe UI'" text-anchor="middle" font-size="13px" style="fill: light-dark(rgb(0, 0, 0), rgb(255, 255, 255));"><text x="580" y="288.5">EFitsTableSpecException</text></g></g></g><g data-cell-id="adFwdG6kmuWARCFzOLXI-63"><g transform="translate(0.5,0.5)"><path d="M 500 336 L 500 310 L 660 310 L 660 336" fill="#ffe6cc" stroke="#000000" stroke-miterlimit="10" pointer-events="all" style="fill: light-dark(rgb(255, 230, 204), rgb(54, 33, 10)); stroke: light-dark(rgb(0, 0, 0), rgb(255, 255, 255));"/><path d="M 500 336 L 660 336" fill="none" stroke="#000000" stroke-miterlimit="10" pointer-events="all" style="stroke: light-dark(rgb(0, 0, 0), rgb(255, 255, 255));"/></g><g><g fill="#000000" font-family="'Segoe UI'" text-anchor="middle" font-size="13px" style="fill: light-dark(rgb(0, 0, 0), rgb(255, 255, 255));"><text x="580" y="328.5">EFitsTableHeadException</text></g></g></g><g data-cell-id="adFwdG6kmuWARCFzOLXI-64"><g transform="translate(0.5,0.5)"><path d="M 500 376 L 500 350 L 660 350 L 660 376" fill="#ffe6cc" stroke="#000000" stroke-miterlimit="10" pointer-events="all" style="fill: light-dark(rgb(255, 230, 204), rgb(54, 33, 10)); stroke: light-dark(rgb(0, 0, 0), rgb(255, 255, 255));"/><path d="M 500 376 L 660 376" fill="none" stroke="#000000" stroke-miterlimit="10" pointer-events="all" style="stroke: light-dark(rgb(0, 0, 0), rgb(255, 255, 255));"/></g><g><g fill="#000000" font-family="'Segoe UI'" text-anchor="middle" font-size="13px" style="fill: light-dark(rgb(0, 0, 0), rgb(255, 255, 255));"><text x="580" y="368.5">EFitsTableDataException</text></g></g></g><g data-cell-id="adFwdG6kmuWARCFzOLXI-65"><g transform="translate(0.5,0.5)"><path d="M 500 416 L 500 390 L 660 390 L 660 416" fill="#ffe6cc" stroke="#000000" stroke-miterlimit="10" pointer-events="all" style="fill: light-dark(rgb(255, 230, 204), rgb(54, 33, 10)); stroke: light-dark(rgb(0, 0, 0), rgb(255, 255, 255));"/><path d="M 500 416 L 660 416" fill="none" stroke="#000000" stroke-miterlimit="10" pointer-events="all" style="stroke: light-dark(rgb(0, 0, 0), rgb(255, 255, 255));"/></g><g><g fill="#000000" font-family="'Segoe UI'" text-anchor="middle" font-size="13px" style="fill: light-dark(rgb(0, 0, 0), rgb(255, 255, 255));"><text x="580" y="408.5">EFitsTableException</text></g></g></g></g><g data-cell-id="iev4zoGhxsVC_mGmtzaG-15"><g transform="translate(0.5,0.5)"><path d="M 180 330 L 210 330 L 210 240 L 235.88 240" fill="none" stroke="#000000" stroke-miterlimit="10" pointer-events="stroke" style="stroke: light-dark(rgb(0, 0, 0), rgb(255, 255, 255));"/><path d="M 248.88 240 L 235.88 246.5 L 235.88 233.5 Z" fill="none" stroke="#000000" stroke-miterlimit="10" pointer-events="all" style="stroke: light-dark(rgb(0, 0, 0), rgb(255, 255, 255));"/></g></g><g data-cell-id="iev4zoGhxsVC_mGmtzaG-16"><g transform="translate(0.5,0.5)"><path d="M 490 330 L 465 330 L 465 240 L 444.12 240" fill="none" stroke="#000000" stroke-miterlimit="10" pointer-events="stroke" style="stroke: light-dark(rgb(0, 0, 0), rgb(255, 255, 255));"/><path d="M 431.12 240 L 444.12 233.5 L 444.12 246.5 Z" fill="none" stroke="#000000" stroke-miterlimit="10" pointer-events="all" style="stroke: light-dark(rgb(0, 0, 0), rgb(255, 255, 255));"/></g></g><g data-cell-id="iev4zoGhxsVC_mGmtzaG-17"><g transform="translate(0.5,0.5)"><path d="M 90 480 L 90 444.12" fill="none" stroke="#000000" stroke-miterlimit="10" pointer-events="stroke" style="stroke: light-dark(rgb(0, 0, 0), rgb(255, 255, 255));"/><path d="M 90 431.12 L 96.5 444.12 L 83.5 444.12 Z" fill="none" stroke="#000000" stroke-miterlimit="10" pointer-events="all" style="stroke: light-dark(rgb(0, 0, 0), rgb(255, 255, 255));"/></g></g></g></g></g></svg>