<svg xmlns="http://www.w3.org/2000/svg" version="1.1" xmlns:xlink="http://www.w3.org/1999/xlink" width="512" height="512"><svg xmlns="http://www.w3.org/2000/svg" version="1.1" xmlns:xlink="http://www.w3.org/1999/xlink" width="512" height="512"><svg width="512" height="512" viewBox="0 0 512 512" version="1.1" id="svg1" inkscape:version="1.4 (86a8ad7, 2024-10-11)" sodipodi:docname="delafits.icon.svg" inkscape:export-filename="delafits.icon.png" inkscape:export-xdpi="96" inkscape:export-ydpi="96" xmlns:inkscape="http://www.inkscape.org/namespaces/inkscape" xmlns:sodipodi="http://sodipodi.sourceforge.net/DTD/sodipodi-0.dtd" xmlns="http://www.w3.org/2000/svg" xmlns:svg="http://www.w3.org/2000/svg" xmlns:rdf="http://www.w3.org/1999/02/22-rdf-syntax-ns#" xmlns:cc="http://creativecommons.org/ns#" xmlns:dc="http://purl.org/dc/elements/1.1/">
  <title id="title1">DeLaFits Icon</title>
  <sodipodi:namedview id="namedview1" pagecolor="#ffffff" bordercolor="#000000" borderopacity="0.25" inkscape:showpageshadow="2" inkscape:pageopacity="0.0" inkscape:pagecheckerboard="0" inkscape:deskcolor="#d1d1d1" inkscape:document-units="px" showgrid="true" inkscape:zoom="1.5" inkscape:cx="256" inkscape:cy="257" inkscape:window-width="1920" inkscape:window-height="1017" inkscape:window-x="-8" inkscape:window-y="-8" inkscape:window-maximized="1" inkscape:current-layer="layer1">
    <inkscape:grid id="grid1" units="px" originx="0" originy="0" spacingx="1" spacingy="1" empcolor="#0099e5" empopacity="0.30196078" color="#0099e5" opacity="0.14901961" empspacing="5" enabled="true" visible="true"></inkscape:grid>
  </sodipodi:namedview>
  <defs id="defs1"></defs>
  <g inkscape:label="Layer 1" inkscape:groupmode="layer" id="layer1">
    <path id="rect2" style="fill:#7eb6ff;fill-opacity:1;stroke:none;stroke-width:0;stroke-dasharray:none;stroke-opacity:1" d="m 345.7619,131.45788 c -16.23443,0 -29.30402,13.06959 -29.30402,29.30402 v 190.4762 c 0,16.23443 13.06959,29.30402 29.30402,29.30402 h 106.22711 c 16.23443,0 29.30403,-13.06959 29.30403,-29.30402 0,-16.23444 -13.0696,-29.30403 -29.30403,-29.30403 h -76.92308 v -36.63004 h 40.29304 c 16.23444,0 29.30403,-13.0696 29.30403,-29.30403 0,-16.23443 -13.06959,-29.30403 -29.30403,-29.30403 h -40.29304 v -36.63004 h 76.92308 c 16.23443,0 29.30403,-13.06959 29.30403,-29.30403 0,-16.23443 -13.0696,-29.30402 -29.30403,-29.30402 z" inkscape:label="letter"></path>
    <path id="path1" style="fill:#7eb6ff;fill-opacity:1;stroke:none;stroke-width:0;stroke-dasharray:none;stroke-opacity:1" d="M 256 16 A 240 240 0 0 0 16 256 A 240 240 0 0 0 256 496 A 240 240 0 0 0 434.5332 416.01367 L 327.7168 416.01367 A 176 176 0 0 1 256 432 A 176 176 0 0 1 80 256 A 176 176 0 0 1 256 80 A 176 176 0 0 1 329.125 95.986328 L 434.82812 95.986328 A 240 240 0 0 0 256 16 z " inkscape:label="circle"></path>
  </g>
  <metadata id="metadata1">
    <rdf:rdf>
      <cc:work rdf:about="">
        <dc:title>DeLaFits Icon</dc:title>
        <dc:creator>
          <cc:agent>
            <dc:title>felleroff</dc:title>
          </cc:agent>
        </dc:creator>
      </cc:work>
    </rdf:rdf>
  </metadata>
</svg></svg><style>@media (prefers-color-scheme: light) { :root { filter: none; } }
@media (prefers-color-scheme: dark) { :root { filter: none; } }
</style></svg>