<?xml version="1.0" standalone="no"?>
<!DOCTYPE svg PUBLIC "-//W3C//DTD SVG 20010904//EN"
 "http://www.w3.org/TR/2001/REC-SVG-20010904/DTD/svg10.dtd">
<svg version="1.0" xmlns="http://www.w3.org/2000/svg"
 width="300.000000pt" height="300.000000pt" viewBox="0 0 300.000000 300.000000"
 preserveAspectRatio="xMidYMid meet">
<metadata>
Created by potrace 1.14, written by Peter Selinger 2001-2017
</metadata>
<g transform="translate(0.000000,300.000000) scale(0.100000,-0.100000)"
fill="#000000" stroke="none">
<path d="M1290 2884 c-602 -96 -1063 -550 -1169 -1151 -15 -84 -19 -142 -16
-263 2 -85 6 -167 9 -182 3 -16 8 -38 10 -51 30 -170 126 -395 231 -542 258
-359 648 -572 1085 -592 270 -12 515 47 755 182 51 29 176 113 185 126 3 4 25
23 48 43 l44 36 -29 0 c-15 1 -136 1 -268 1 -218 -1 -245 -2 -294 -21 -212
-82 -481 -89 -708 -20 -393 120 -696 473 -762 889 -10 59 -7 298 3 341 3 14 9
41 12 60 10 50 62 196 92 255 62 123 179 267 297 366 45 37 174 115 230 139
28 12 59 25 70 30 39 17 131 42 210 55 174 30 468 -2 584 -64 20 -11 90 -13
399 -12 l164 1 -59 50 c-209 181 -475 298 -748 330 -97 11 -285 8 -375 -6z"/>
<path d="M1960 2320 c0 -5 -34 -21 -73 -34 -11 -3 -21 -15 -24 -26 -3 -11 -9
-20 -14 -20 -5 0 -9 -334 -9 -742 0 -845 -6 -791 82 -816 40 -12 252 -15 759
-12 43 0 65 6 92 24 19 13 39 21 43 18 4 -4 4 -2 0 5 -3 6 3 28 13 47 17 30
18 40 9 68 -18 52 -36 75 -75 93 -32 16 -72 18 -327 17 -160 0 -299 2 -308 4
-15 4 -17 26 -16 204 l0 200 177 0 c171 0 177 1 212 25 20 13 40 21 44 17 5
-4 5 -2 1 5 -4 7 0 23 9 37 19 28 17 102 -2 118 -7 5 -11 13 -9 17 1 3 -5 14
-16 24 -10 9 -18 14 -18 11 0 -3 -10 2 -22 10 -18 13 -55 16 -199 16 l-177 0
1 208 2 207 290 1 c375 2 362 0 406 47 34 36 37 43 35 97 0 32 -3 57 -5 54 -2
-2 -15 11 -28 28 -12 18 -23 28 -23 22 0 -5 -6 -2 -13 6 -7 8 -19 17 -27 19
-24 5 -790 7 -790 1z"/>
</g>
</svg>
